<svg width="180" height="60" viewBox="0 0 180 60" fill="none" xmlns="http://www.w3.org/2000/svg">
<path d="M165.202 0.000194999H14.302C13.7519 0.000194999 13.2085 0.000194999 12.6599 0.00319499C12.2007 0.00619498 11.7451 0.01491 11.2815 0.0222449C10.2742 0.0340976 9.26938 0.122709 8.27562 0.287309C7.28326 0.455492 6.32199 0.772566 5.42431 1.22781C4.52773 1.6869 3.70851 2.28344 2.99635 2.99579C2.28045 3.70614 1.68369 4.5272 1.22902 5.42742C0.773098 6.32584 0.456959 7.28858 0.291524 8.28239C0.124516 9.27494 0.0346475 10.2789 0.0227249 11.2854C0.00880497 11.7453 0.00733498 12.2067 0 12.6667V47.3379C0.00733498 47.8037 0.00880497 48.2549 0.0227249 48.7208C0.0346511 49.7272 0.12452 50.7311 0.291524 51.7236C0.456502 52.718 0.77266 53.6813 1.22902 54.5801C1.68348 55.4774 2.28032 56.2951 2.99635 57.0015C3.70581 57.717 4.52556 58.314 5.42431 58.7696C6.32198 59.226 7.28315 59.545 8.27562 59.7158C9.26955 59.879 10.2743 59.9677 11.2815 59.9809C11.7451 59.9911 12.2007 59.997 12.6599 59.997C13.2085 60 13.752 60 14.302 60H165.202C165.741 60 166.289 60 166.828 59.997C167.285 59.997 167.753 59.9911 168.21 59.9809C169.216 59.9684 170.219 59.8797 171.21 59.7158C172.206 59.5438 173.171 59.2249 174.073 58.7696C174.971 58.3137 175.79 57.7168 176.499 57.0015C177.213 56.2923 177.811 55.4752 178.271 54.5801C178.724 53.6807 179.037 52.7174 179.2 51.7236C179.367 50.731 179.46 49.7273 179.478 48.7208C179.484 48.2549 179.484 47.8037 179.484 47.3379C179.496 46.793 179.496 46.251 179.496 45.6972V14.3043C179.496 13.755 179.496 13.2101 179.484 12.6667C179.484 12.2067 179.484 11.7453 179.478 11.2853C179.46 10.2788 179.367 9.27502 179.2 8.28233C179.037 7.28909 178.723 6.32643 178.271 5.42736C177.345 3.62298 175.877 2.15423 174.073 1.22767C173.171 0.773544 172.206 0.456554 171.21 0.287174C170.219 0.121849 169.216 0.0332065 168.21 0.0220349C167.753 0.014715 167.285 0.00592498 166.828 0.00299999C166.289 0 165.741 0 165.202 0V0.000194999Z" fill="#A6A6A6"/>
<path d="M12.6671 58.6873C12.2101 58.6873 11.7641 58.6815 11.3107 58.6713C10.3714 58.659 9.43426 58.5772 8.50701 58.4266C7.6424 58.2777 6.80482 58.0007 6.02191 57.6048C5.24617 57.2121 4.53864 56.6972 3.92641 56.0799C3.30533 55.4698 2.78824 54.7622 2.39565 53.9851C1.99874 53.203 1.72405 52.3647 1.58116 51.4993C1.42684 50.5695 1.34335 49.6293 1.33141 48.6868C1.3219 48.3705 1.30945 47.3172 1.30945 47.3172V12.6665C1.30945 12.6665 1.32271 11.6294 1.33148 11.3247C1.34292 10.3837 1.42593 9.44495 1.57978 8.51657C1.72294 7.64885 1.99784 6.8081 2.39496 6.02343C2.78611 5.2469 3.30032 4.53878 3.91767 3.92651C4.53432 3.30843 5.24412 2.7909 6.02117 2.39281C6.80229 1.99814 7.63828 1.7231 8.50114 1.5769C9.43144 1.42475 10.3718 1.34249 11.3144 1.33081L12.6679 1.3125H166.82L168.19 1.33155C169.124 1.34265 170.056 1.42417 170.977 1.57543C171.849 1.72346 172.694 2.00042 173.484 2.39721C175.041 3.19947 176.307 4.46873 177.106 6.02709C177.497 6.80635 177.768 7.64024 177.909 8.50046C178.065 9.43646 178.152 10.3826 178.17 11.3313C178.174 11.7561 178.174 12.2124 178.174 12.6665C178.186 13.229 178.186 13.7644 178.186 14.3042V45.6971C178.186 46.242 178.186 46.7738 178.174 47.3099C178.174 47.7976 178.174 48.2445 178.168 48.7044C178.151 49.6362 178.065 50.5654 177.912 51.4846C177.772 52.3562 177.499 53.2011 177.102 53.9896C176.707 54.7583 176.192 55.4597 175.579 56.0682C174.966 56.6888 174.257 57.2067 173.479 57.6019C172.692 58.0009 171.848 58.2789 170.977 58.4266C170.05 58.5781 169.113 58.6598 168.174 58.6713C167.734 58.6815 167.274 58.6873 166.828 58.6873L165.202 58.6903L12.6671 58.6873Z" fill="black"/>
<path d="M37.1532 30.451C37.1693 29.199 37.5019 27.9714 38.1199 26.8825C38.7379 25.7935 39.6214 24.8786 40.688 24.2229C40.0104 23.2551 39.1165 22.4587 38.0772 21.8969C37.038 21.3351 35.8821 21.0233 34.7013 20.9864C32.1824 20.722 29.7405 22.4936 28.457 22.4936C27.1485 22.4936 25.1723 21.0126 23.0442 21.0564C21.6677 21.1009 20.3262 21.5012 19.1504 22.2182C17.9746 22.9353 17.0046 23.9448 16.3349 25.1482C13.4339 30.1708 15.5977 37.5524 18.3767 41.6123C19.767 43.6003 21.3919 45.821 23.5181 45.7422C25.5987 45.6559 26.3757 44.4155 28.8872 44.4155C31.3753 44.4155 32.1043 45.7422 34.2736 45.6921C36.5062 45.6559 37.9128 43.6953 39.2544 41.6884C40.2534 40.2719 41.0221 38.7063 41.532 37.0497C40.235 36.5011 39.1281 35.5828 38.3494 34.4094C37.5707 33.2359 37.1547 31.8593 37.1532 30.451Z" fill="white"/>
<path d="M33.0557 18.3165C34.273 16.8552 34.8727 14.9769 34.7275 13.0806C32.8678 13.2759 31.1499 14.1647 29.9162 15.57C29.3129 16.2565 28.8509 17.0551 28.5566 17.9203C28.2622 18.7854 28.1412 19.7001 28.2006 20.612C29.1308 20.6216 30.0511 20.42 30.892 20.0224C31.733 19.6247 32.4728 19.0415 33.0557 18.3165Z" fill="white"/>
<path d="M63.4531 40.7095H56.353L54.6479 45.7441H51.6406L58.3657 27.1172H61.4902L68.2153 45.7441H65.1567L63.4531 40.7095ZM57.0884 38.3862H62.7163L59.9419 30.2154H59.8643L57.0884 38.3862Z" fill="white"/>
<path d="M82.7393 38.9546C82.7393 43.1748 80.4805 45.8863 77.0718 45.8863C76.2083 45.9314 75.3496 45.7325 74.5939 45.3123C73.8382 44.8921 73.2161 44.2676 72.7989 43.5103H72.7344V50.2368H69.9468V32.1636H72.6451V34.4224H72.6963C73.1328 33.6687 73.7653 33.0474 74.5268 32.6247C75.2882 32.2019 76.15 31.9935 77.0205 32.0215C80.4672 32.0216 82.7393 34.7462 82.7393 38.9546ZM79.874 38.9546C79.874 36.2052 78.4531 34.3975 76.2852 34.3975C74.1553 34.3975 72.7227 36.2432 72.7227 38.9546C72.7227 41.691 74.1553 43.5235 76.2852 43.5235C78.4531 43.5235 79.874 41.729 79.874 38.9546Z" fill="white"/>
<path d="M97.6863 38.9546C97.6863 43.1748 95.4275 45.8862 92.0188 45.8862C91.1553 45.9314 90.2966 45.7325 89.5409 45.3123C88.7852 44.8921 88.1631 44.2676 87.7459 43.5103H87.6814V50.2368H84.8938V32.1636H87.592V34.4224H87.6433C88.0797 33.6687 88.7123 33.0474 89.4738 32.6247C90.2352 32.2019 91.097 31.9935 91.9675 32.0215C95.4143 32.0215 97.6863 34.7461 97.6863 38.9546ZM94.8211 38.9546C94.8211 36.2051 93.4002 34.3975 91.2322 34.3975C89.1023 34.3975 87.6697 36.2432 87.6697 38.9546C87.6697 41.691 89.1023 43.5235 91.2322 43.5235C93.4002 43.5235 94.8211 41.729 94.8211 38.9546H94.8211Z" fill="white"/>
<path d="M107.565 40.5542C107.772 42.4014 109.566 43.6142 112.018 43.6142C114.368 43.6142 116.058 42.4013 116.058 40.7358C116.058 39.29 115.039 38.4243 112.625 37.831L110.211 37.2495C106.79 36.4233 105.202 34.8237 105.202 32.228C105.202 29.0142 108.003 26.8066 111.98 26.8066C115.916 26.8066 118.614 29.0142 118.705 32.228H115.891C115.723 30.3691 114.186 29.2471 111.941 29.2471C109.695 29.2471 108.158 30.3823 108.158 32.0347C108.158 33.3516 109.14 34.1265 111.541 34.7197L113.593 35.2236C117.415 36.1274 119.003 37.6626 119.003 40.3871C119.003 43.872 116.227 46.0546 111.812 46.0546C107.681 46.0546 104.892 43.9232 104.712 40.5541L107.565 40.5542Z" fill="white"/>
<path d="M125.019 28.9492V32.1631H127.601V34.3706H125.019V41.8574C125.019 43.0205 125.536 43.5625 126.671 43.5625C126.978 43.5571 127.284 43.5356 127.588 43.498V45.6923C127.078 45.7877 126.559 45.8308 126.04 45.8212C123.29 45.8212 122.218 44.7885 122.218 42.1547V34.3706H120.243V32.1631H122.218V28.9492H125.019Z" fill="white"/>
<path d="M129.097 38.9541C129.097 34.6811 131.614 31.9961 135.538 31.9961C139.475 31.9961 141.98 34.6811 141.98 38.9541C141.98 43.2387 139.488 45.9121 135.538 45.9121C131.589 45.9121 129.097 43.2387 129.097 38.9541ZM139.14 38.9541C139.14 36.0229 137.797 34.293 135.538 34.293C133.279 34.293 131.937 36.0361 131.937 38.9541C131.937 41.8969 133.279 43.6137 135.538 43.6137C137.797 43.6137 139.14 41.8969 139.14 38.9541H139.14Z" fill="white"/>
<path d="M144.279 32.1635H146.937V34.475H147.002C147.182 33.7531 147.605 33.1151 148.199 32.6683C148.794 32.2214 149.525 31.993 150.268 32.0214C150.59 32.0203 150.91 32.0552 151.223 32.1254V34.7328C150.818 34.6089 150.395 34.552 149.971 34.5644C149.566 34.5479 149.162 34.6193 148.787 34.7737C148.413 34.928 148.076 35.1616 147.8 35.4584C147.524 35.7553 147.315 36.1083 147.189 36.4933C147.062 36.8783 147.02 37.2862 147.066 37.6889V45.744H144.279L144.279 32.1635Z" fill="white"/>
<path d="M164.076 41.7549C163.701 44.2202 161.3 45.9121 158.228 45.9121C154.277 45.9121 151.825 43.2651 151.825 39.0185C151.825 34.7588 154.291 31.9961 158.111 31.9961C161.868 31.9961 164.231 34.5771 164.231 38.6948V39.6499H154.639V39.8183C154.595 40.3181 154.657 40.8216 154.823 41.2954C154.988 41.7691 155.252 42.2023 155.598 42.5661C155.943 42.93 156.362 43.2161 156.827 43.4056C157.291 43.595 157.791 43.6834 158.292 43.665C158.951 43.7267 159.612 43.5741 160.177 43.23C160.742 42.8858 161.181 42.3685 161.429 41.7548L164.076 41.7549ZM154.652 37.7016H161.442C161.467 37.2522 161.399 36.8025 161.242 36.3807C161.085 35.9589 160.842 35.5741 160.529 35.2505C160.217 34.9268 159.84 34.6713 159.424 34.5C159.008 34.3287 158.561 34.2452 158.111 34.2549C157.657 34.2522 157.207 34.3394 156.787 34.5115C156.367 34.6836 155.985 34.9372 155.663 35.2577C155.342 35.5781 155.087 35.9591 154.913 36.3785C154.74 36.798 154.651 37.2477 154.652 37.7017V37.7016Z" fill="white"/>
<path d="M56.739 13.0966C57.3234 13.0546 57.9099 13.1429 58.456 13.3551C59.0022 13.5672 59.4945 13.8979 59.8973 14.3234C60.3002 14.7488 60.6037 15.2584 60.7858 15.8153C60.9679 16.3722 61.0241 16.9626 60.9504 17.5438C60.9504 20.4032 59.405 22.0468 56.739 22.0468H53.5061V13.0966H56.739ZM54.8962 20.7811H56.5837C57.0013 20.806 57.4192 20.7375 57.807 20.5806C58.1949 20.4237 58.5428 20.1823 58.8255 19.8739C59.1083 19.5656 59.3187 19.1981 59.4415 18.7982C59.5643 18.3982 59.5964 17.976 59.5354 17.5621C59.5919 17.1498 59.5566 16.7302 59.4319 16.3332C59.3073 15.9362 59.0963 15.5717 58.8142 15.2658C58.5321 14.9599 58.1859 14.7202 57.8002 14.5638C57.4146 14.4075 56.9992 14.3383 56.5837 14.3614H54.8962V20.7811Z" fill="white"/>
<path d="M62.5207 18.6662C62.4782 18.2223 62.529 17.7745 62.6698 17.3513C62.8105 16.9282 63.0382 16.5392 63.3381 16.2093C63.638 15.8793 64.0035 15.6156 64.4113 15.4352C64.8191 15.2548 65.2601 15.1616 65.706 15.1616C66.1519 15.1616 66.5929 15.2548 67.0006 15.4352C67.4084 15.6156 67.774 15.8793 68.0739 16.2093C68.3738 16.5392 68.6014 16.9282 68.7422 17.3513C68.883 17.7745 68.9337 18.2223 68.8913 18.6662C68.9345 19.1105 68.8844 19.559 68.744 19.9828C68.6036 20.4066 68.3761 20.7963 68.0761 21.1269C67.7761 21.4575 67.4103 21.7217 67.0021 21.9025C66.5939 22.0833 66.1524 22.1767 65.706 22.1767C65.2595 22.1767 64.818 22.0833 64.4099 21.9025C64.0017 21.7217 63.6358 21.4575 63.3358 21.1269C63.0359 20.7963 62.8084 20.4066 62.668 19.9828C62.5276 19.559 62.4774 19.1105 62.5207 18.6662ZM67.5202 18.6662C67.5202 17.2021 66.8624 16.3459 65.7082 16.3459C64.5495 16.3459 63.8977 17.2021 63.8977 18.6662C63.8977 20.142 64.5495 20.9916 65.7082 20.9916C66.8625 20.9916 67.5202 20.1361 67.5202 18.6662H67.5202Z" fill="white"/>
<path d="M77.3596 22.0469H75.9768L74.5808 17.0723H74.4753L73.0852 22.0469H71.7156L69.8538 15.2925H71.2058L72.4158 20.4465H72.5154L73.9041 15.2925H75.1829L76.5715 20.4465H76.677L77.8811 15.2925H79.2141L77.3596 22.0469Z" fill="white"/>
<path d="M80.7798 15.2923H82.063V16.3653H82.1626C82.3316 15.9799 82.6166 15.6569 82.9779 15.4411C83.3392 15.2254 83.7588 15.1278 84.1782 15.1619C84.5069 15.1372 84.8369 15.1868 85.1438 15.3069C85.4507 15.4271 85.7266 15.6147 85.9511 15.856C86.1756 16.0972 86.343 16.3859 86.4408 16.7007C86.5386 17.0154 86.5643 17.3481 86.5161 17.6741V22.0466H85.1831V18.0089C85.1831 16.9234 84.7114 16.3836 83.7256 16.3836C83.5024 16.3732 83.2797 16.4112 83.0726 16.4949C82.8655 16.5787 82.679 16.7062 82.5258 16.8688C82.3726 17.0314 82.2564 17.2251 82.1851 17.4368C82.1138 17.6485 82.0891 17.8731 82.1128 18.0953V22.0467H80.7798L80.7798 15.2923Z" fill="white"/>
<path d="M88.6401 12.6558H89.9731V22.0468H88.6401V12.6558Z" fill="white"/>
<path d="M91.8263 18.6663C91.7839 18.2224 91.8347 17.7745 91.9755 17.3514C92.1163 16.9283 92.3439 16.5393 92.6439 16.2093C92.9438 15.8793 93.3094 15.6156 93.7172 15.4352C94.125 15.2548 94.566 15.1616 95.012 15.1616C95.4579 15.1616 95.8989 15.2548 96.3067 15.4352C96.7145 15.6156 97.0801 15.8793 97.3801 16.2093C97.68 16.5393 97.9077 16.9283 98.0485 17.3514C98.1892 17.7745 98.2401 18.2224 98.1976 18.6663C98.2408 19.1107 98.1906 19.5591 98.0502 19.9829C97.9098 20.4067 97.6822 20.7964 97.3822 21.127C97.0822 21.4576 96.7163 21.7218 96.3081 21.9026C95.8999 22.0834 95.4584 22.1768 95.012 22.1768C94.5655 22.1768 94.124 22.0834 93.7158 21.9026C93.3076 21.7218 92.9418 21.4576 92.6417 21.127C92.3417 20.7964 92.1142 20.4067 91.9737 19.9829C91.8333 19.5591 91.7831 19.1107 91.8263 18.6663ZM96.8258 18.6663C96.8258 17.2022 96.1681 16.346 95.0138 16.346C93.8551 16.346 93.2033 17.2022 93.2033 18.6663C93.2033 20.1421 93.8552 20.9917 95.0138 20.9917C96.1681 20.9917 96.8258 20.1363 96.8258 18.6663H96.8258Z" fill="white"/>
<path d="M99.6008 20.1362C99.6008 18.9204 100.506 18.2195 102.113 18.1199L103.943 18.0144V17.4314C103.943 16.718 103.471 16.3152 102.56 16.3152C101.816 16.3152 101.3 16.5884 101.152 17.0659H99.8616C99.9978 15.9058 101.089 15.1616 102.621 15.1616C104.315 15.1616 105.27 16.0046 105.27 17.4314V22.0464H103.987V21.0971H103.881C103.667 21.4376 103.366 21.7152 103.01 21.9015C102.654 22.0878 102.254 22.1762 101.852 22.1576C101.569 22.1871 101.282 22.1569 101.011 22.0688C100.74 21.9808 100.49 21.8369 100.278 21.6464C100.066 21.456 99.8961 21.2232 99.7794 20.9631C99.6628 20.703 99.6019 20.4213 99.6008 20.1362ZM103.943 19.5591V18.9944L102.293 19.0998C101.363 19.1621 100.941 19.4785 100.941 20.0739C100.941 20.6818 101.468 21.0356 102.194 21.0356C102.406 21.0571 102.621 21.0357 102.825 20.9725C103.029 20.9094 103.218 20.8059 103.381 20.6681C103.544 20.5303 103.678 20.3612 103.775 20.1706C103.871 19.9801 103.928 19.7721 103.943 19.5591Z" fill="white"/>
<path d="M107.022 18.6668C107.022 16.5325 108.119 15.1804 109.825 15.1804C110.248 15.161 110.666 15.2621 111.033 15.4719C111.4 15.6818 111.7 15.9917 111.897 16.3654H111.996V12.6558H113.329V22.0468H112.052V20.9797H111.947C111.734 21.3509 111.424 21.657 111.05 21.8647C110.676 22.0724 110.253 22.1739 109.825 22.1582C108.107 22.1582 107.022 20.8061 107.022 18.6668ZM108.399 18.6668C108.399 20.0994 109.074 20.9614 110.203 20.9614C111.327 20.9614 112.021 20.0869 112.021 18.6726C112.021 17.2649 111.32 16.3779 110.203 16.3779C109.081 16.3779 108.399 17.2459 108.399 18.6668H108.399Z" fill="white"/>
<path d="M118.844 18.6662C118.802 18.2223 118.853 17.7745 118.993 17.3513C119.134 16.9282 119.362 16.5392 119.662 16.2093C119.962 15.8793 120.327 15.6156 120.735 15.4352C121.143 15.2548 121.584 15.1616 122.03 15.1616C122.476 15.1616 122.917 15.2548 123.324 15.4352C123.732 15.6156 124.098 15.8793 124.398 16.2093C124.698 16.5392 124.925 16.9282 125.066 17.3513C125.207 17.7745 125.257 18.2223 125.215 18.6662C125.258 19.1105 125.208 19.559 125.068 19.9828C124.927 20.4066 124.7 20.7963 124.4 21.1269C124.1 21.4575 123.734 21.7217 123.326 21.9025C122.918 22.0833 122.476 22.1767 122.03 22.1767C121.583 22.1767 121.142 22.0833 120.734 21.9025C120.325 21.7217 119.96 21.4575 119.66 21.1269C119.36 20.7963 119.132 20.4066 118.992 19.9828C118.851 19.559 118.801 19.1105 118.844 18.6662ZM123.844 18.6662C123.844 17.2021 123.186 16.3459 122.032 16.3459C120.873 16.3459 120.221 17.2021 120.221 18.6662C120.221 20.142 120.873 20.9916 122.032 20.9916C123.186 20.9916 123.844 20.1361 123.844 18.6662Z" fill="white"/>
<path d="M127.004 15.2923H128.287V16.3653H128.386C128.555 15.9799 128.84 15.6569 129.202 15.4411C129.563 15.2254 129.983 15.1278 130.402 15.1619C130.731 15.1372 131.061 15.1868 131.368 15.3069C131.675 15.4271 131.95 15.6147 132.175 15.856C132.4 16.0972 132.567 16.3859 132.665 16.7007C132.762 17.0154 132.788 17.3481 132.74 17.6741V22.0466H131.407V18.0089C131.407 16.9234 130.935 16.3836 129.949 16.3836C129.726 16.3732 129.504 16.4112 129.296 16.4949C129.089 16.5787 128.903 16.7062 128.75 16.8688C128.597 17.0314 128.48 17.2251 128.409 17.4368C128.338 17.6485 128.313 17.8731 128.337 18.0953V22.0467H127.004V15.2923Z" fill="white"/>
<path d="M140.272 13.6108V15.3232H141.736V16.446H140.272V19.9192C140.272 20.6267 140.564 20.9365 141.227 20.9365C141.397 20.936 141.567 20.9257 141.736 20.9057V22.0161C141.496 22.0589 141.254 22.0817 141.01 22.0842C139.528 22.0842 138.938 21.5627 138.938 20.2605V16.446H137.865V15.3232H138.938V13.6108H140.272Z" fill="white"/>
<path d="M143.556 12.6558H144.878V16.3779H144.983C145.16 15.9889 145.453 15.6641 145.822 15.4475C146.19 15.231 146.617 15.1334 147.043 15.168C147.37 15.1502 147.696 15.2048 148 15.3278C148.303 15.4509 148.576 15.6394 148.798 15.8799C149.02 16.1204 149.186 16.407 149.285 16.7192C149.384 17.0314 149.412 17.3615 149.369 17.686V22.0469H148.034V18.0149C148.034 16.936 147.532 16.3896 146.59 16.3896C146.361 16.3708 146.131 16.4023 145.915 16.4819C145.699 16.5615 145.504 16.6872 145.342 16.8503C145.18 17.0134 145.055 17.21 144.977 17.4262C144.899 17.6424 144.869 17.873 144.889 18.102V22.0468H143.556L143.556 12.6558Z" fill="white"/>
<path d="M157.141 20.2227C156.96 20.8401 156.568 21.374 156.033 21.7313C155.498 22.0885 154.854 22.2462 154.215 22.1768C153.77 22.1886 153.327 22.1034 152.919 21.9271C152.51 21.7508 152.144 21.4876 151.848 21.1559C151.551 20.8242 151.33 20.4319 151.199 20.0062C151.069 19.5804 151.034 19.1315 151.094 18.6905C151.035 18.2482 151.072 17.7983 151.201 17.3713C151.331 16.9443 151.551 16.5501 151.846 16.2155C152.142 15.8809 152.505 15.6137 152.913 15.4319C153.321 15.25 153.762 15.1579 154.209 15.1617C156.088 15.1617 157.222 16.4457 157.222 18.5667V19.0319H152.452V19.1066C152.432 19.3544 152.463 19.6039 152.544 19.839C152.625 20.0742 152.754 20.2897 152.924 20.4719C153.093 20.6541 153.299 20.7989 153.527 20.897C153.756 20.9951 154.002 21.0443 154.251 21.0415C154.57 21.0798 154.893 21.0224 155.179 20.8766C155.465 20.7308 155.702 20.5032 155.858 20.2227L157.141 20.2227ZM152.452 18.046H155.864C155.881 17.8193 155.85 17.5916 155.774 17.3775C155.697 17.1635 155.577 16.9677 155.42 16.803C155.264 16.6382 155.074 16.508 154.864 16.4207C154.654 16.3334 154.429 16.291 154.201 16.2963C153.971 16.2934 153.742 16.3366 153.528 16.4236C153.315 16.5105 153.121 16.6393 152.958 16.8023C152.795 16.9654 152.666 17.1595 152.579 17.373C152.493 17.5866 152.449 17.8155 152.452 18.046H152.452Z" fill="white"/>
</svg>
