<svg width="185" height="20" viewBox="0 0 185 20" fill="none" xmlns="http://www.w3.org/2000/svg">
<g clip-path="url(#clip0_72_1585)">
<path d="M105.616 0V19.75H102.873V0H105.616ZM109.107 19.875L112.599 0.124969L118.335 14.375L124.32 0.124969L127.562 19.875H124.944L123.323 8.75L118.335 19.875L113.472 8.75L111.601 19.875H109.107ZM133.547 9.12499H134.545C137.039 9.12499 138.286 8.12499 138.286 5.99999C138.286 3.99998 137.039 2.87498 134.42 2.87498H133.547V9.12499ZM133.547 11.875V19.875H130.804V0.124969H133.922C135.418 0.124969 136.54 0.250031 137.413 0.500031C138.161 0.750031 138.909 1.12503 139.533 1.75003C140.53 2.87503 141.154 4.24999 141.154 5.99999C141.154 7.87499 140.655 9.24999 139.533 10.375C138.411 11.5 136.914 12 135.044 12L133.547 11.875ZM150.88 12.75L148.386 6.37497L145.767 12.75H150.88ZM151.877 15.375H144.521L142.65 19.875H139.907L148.386 0.124969L156.491 19.875H153.623C153.748 19.875 151.877 15.375 151.877 15.375ZM169.958 1.50002V4.87503C168.462 3.50003 166.841 2.75002 165.22 2.75002C163.474 2.75002 161.978 3.50003 160.731 4.87503C159.484 6.25003 158.86 8 158.86 10C158.86 12 159.484 13.625 160.731 15C161.978 16.375 163.474 17 165.22 17C166.093 17 166.965 16.875 167.589 16.5C167.963 16.375 168.337 16.125 168.711 15.875C169.085 15.625 169.459 15.25 169.958 14.875V18.375C168.462 19.25 166.841 19.875 165.22 19.875C162.726 19.875 160.606 18.875 158.86 17C157.115 15.125 156.242 12.75 156.242 10.125C156.242 7.74997 156.99 5.50003 158.486 3.62503C160.232 1.25003 162.601 0.124969 165.469 0.124969C166.965 0.124969 168.462 0.500015 169.958 1.50002ZM180.058 2.87498V19.875H177.315V2.87498H173.2V0.124969H184.298V2.87498H180.058Z" fill="white"/>
<path d="M50.5011 12.125C50.2517 12.75 50.0023 13.375 49.5036 13.875C49.0048 14.375 48.506 14.75 47.8826 15C47.2591 15.25 46.5109 15.375 45.638 15.375H44.5158V4.25003H45.638C46.3862 4.25003 47.1343 4.37502 47.7578 4.62502C48.3813 4.87502 48.88 5.24997 49.3788 5.74997C49.8776 6.24997 50.127 6.875 50.3764 7.5C50.6258 8.125 50.7505 8.87499 50.7505 9.74999C50.8752 10.75 50.7505 11.5 50.5011 12.125ZM55.1148 6.12503C54.616 5.00003 53.9926 3.87503 53.2444 3.00003C52.4962 2.12503 51.4987 1.37502 50.3764 0.875015C49.2542 0.375015 48.1319 0 46.8849 0H39.9021V19.75H46.8849C48.1319 19.75 49.2542 19.5 50.3764 18.875C51.4987 18.375 52.3715 17.625 53.2444 16.75C54.3666 15.5 55.1148 14 55.4889 12.375C55.6136 12.125 55.6135 11.875 55.6135 11.5C55.8629 9.62502 55.7383 7.75003 55.1148 6.12503ZM69.2052 4.375V0H58.8556V19.75H69.2052V15.375H63.594V12H68.8312V7.62497H63.594V4.375H69.2052ZM82.7969 4.375V0H72.4472V19.75H82.7969V15.375H77.1857V12H82.4228V7.62497H77.1857V4.375H82.7969ZM92.523 9.12499H90.902V4.25003H92.523C94.2688 4.25003 95.1416 5.12503 95.1416 6.75003C95.1416 8.37503 94.2688 9.12499 92.523 9.12499ZM98.5083 1.875C97.3861 0.75 95.8898 0.124969 93.77 0.124969H86.2883V19.875H91.0267V13.375H93.77C95.7651 13.375 97.3861 12.75 98.5083 11.625C99.6306 10.5 100.129 8.87503 100.129 6.75003C100.129 4.62503 99.5059 3 98.5083 1.875Z" fill="#F16521"/>
<path d="M2.74329 17.125V2.75002H8.47919V0H0V17.125V17.875V19.875H8.35452V17.125H2.74329ZM28.1808 17.125V2.75002H22.4449V0H30.9241V17.125V17.875V19.875H22.5696V17.125C22.4449 17.125 28.1808 17.125 28.1808 17.125Z" fill="white"/>
<path d="M13.0929 15.125H17.8313V19.875H13.0929V15.125ZM13.0929 0H17.8313V12.75H13.0929V0Z" fill="#F16521"/>
</g>
<defs>
<clipPath id="clip0_72_1585">
<rect width="184.348" height="20" fill="white"/>
</clipPath>
</defs>
</svg>
