<svg width="203" height="60" viewBox="0 0 203 60" fill="none" xmlns="http://www.w3.org/2000/svg">
<path d="M194.999 0H7.49998C3.35785 0 0 3.35785 0 7.49998V52.4998C0 56.642 3.35785 59.9998 7.49998 59.9998H194.999C199.142 59.9998 202.499 56.642 202.499 52.4998V7.49998C202.499 3.35785 199.142 0 194.999 0Z" fill="black"/>
<path d="M194.999 1.19971C198.473 1.19971 201.299 4.02612 201.299 7.49999V52.4999C201.299 55.9737 198.473 58.8001 194.999 58.8001H7.49998C4.02611 58.8001 1.20007 55.9737 1.20007 52.4999V7.49998C1.20007 4.02611 4.02611 1.19971 7.49998 1.19971H194.999ZM194.999 0H7.49998C3.37499 0 0 3.37499 0 7.49998V52.4998C0 56.6248 3.37499 59.9998 7.49998 59.9998H194.999C199.124 59.9998 202.499 56.6248 202.499 52.4998V7.49998C202.499 3.37499 199.124 0 194.999 0Z" fill="#A6A6A6"/>
<path d="M66.466 10.7397C66.4005 10.5393 66.3142 10.3598 66.2071 10.2011C66.1019 10.0404 65.9759 9.90347 65.8291 9.79039C65.6843 9.67731 65.5197 9.59101 65.3351 9.53149C65.1506 9.47197 64.9483 9.44222 64.7281 9.44222C64.367 9.44222 64.0387 9.53546 63.7431 9.72195C63.4475 9.90843 63.2124 10.1832 63.0378 10.5463C62.8632 10.9093 62.7759 11.3547 62.7759 11.8824C62.7759 12.4101 62.8642 12.8555 63.0408 13.2186C63.2173 13.5816 63.4564 13.8564 63.7579 14.0429C64.0595 14.2294 64.3987 14.3226 64.7757 14.3226C65.1249 14.3226 65.4324 14.2482 65.6982 14.0994C65.966 13.9486 66.1743 13.7364 66.3231 13.4626C66.4739 13.1868 66.5493 12.8625 66.5493 12.4895L66.7755 12.5371H64.9423V11.8824H67.2635V12.5371C67.2635 13.039 67.1564 13.4755 66.9421 13.8465C66.7298 14.2175 66.4362 14.5051 66.0613 14.7095C65.6883 14.9118 65.2598 15.013 64.7757 15.013C64.2361 15.013 63.7619 14.886 63.3532 14.6321C62.9465 14.3782 62.6291 14.0171 62.401 13.5489C62.1748 13.0807 62.0617 12.5252 62.0617 11.8824C62.0617 11.4003 62.1262 10.9668 62.2551 10.582C62.3861 10.1951 62.5706 9.86578 62.8086 9.59398C63.0467 9.32219 63.3284 9.11388 63.6538 8.96906C63.9792 8.82423 64.3372 8.75182 64.7281 8.75182C65.0495 8.75182 65.349 8.80042 65.6268 8.89763C65.9065 8.99286 66.1555 9.12876 66.3737 9.30533C66.5939 9.47991 66.7774 9.68921 66.9243 9.93323C67.0711 10.1753 67.1722 10.4441 67.2278 10.7397H66.466ZM68.5275 14.9297V8.83514H72.2056V9.48983H69.2655V11.5491H72.0152V12.2038H69.2655V14.275H72.2533V14.9297H68.5275ZM73.2026 9.48983V8.83514H77.7735V9.48983H75.857V14.9297H75.119V9.48983H73.2026ZM82.0074 8.83514V14.9297H81.2693V8.83514H82.0074ZM83.1538 9.48983V8.83514H87.7247V9.48983H85.8083V14.9297H85.0703V9.48983H83.1538ZM96.3629 11.8824C96.3629 12.5252 96.2468 13.0807 96.0147 13.5489C95.7826 14.0171 95.4642 14.3782 95.0594 14.6321C94.6547 14.886 94.1925 15.013 93.6727 15.013C93.1529 15.013 92.6907 14.886 92.286 14.6321C91.8812 14.3782 91.5628 14.0171 91.3307 13.5489C91.0986 13.0807 90.9825 12.5252 90.9825 11.8824C90.9825 11.2396 91.0986 10.6841 91.3307 10.2159C91.5628 9.74774 91.8812 9.38667 92.286 9.13273C92.6907 8.87879 93.1529 8.75182 93.6727 8.75182C94.1925 8.75182 94.6547 8.87879 95.0594 9.13273C95.4642 9.38667 95.7826 9.74774 96.0147 10.2159C96.2468 10.6841 96.3629 11.2396 96.3629 11.8824ZM95.6487 11.8824C95.6487 11.3547 95.5604 10.9093 95.3838 10.5463C95.2092 10.1832 94.9722 9.90843 94.6726 9.72195C94.375 9.53546 94.0417 9.44222 93.6727 9.44222C93.3037 9.44222 92.9694 9.53546 92.6698 9.72195C92.3723 9.90843 92.1352 10.1832 91.9586 10.5463C91.784 10.9093 91.6967 11.3547 91.6967 11.8824C91.6967 12.4101 91.784 12.8555 91.9586 13.2186C92.1352 13.5816 92.3723 13.8564 92.6698 14.0429C92.9694 14.2294 93.3037 14.3226 93.6727 14.3226C94.0417 14.3226 94.375 14.2294 94.6726 14.0429C94.9722 13.8564 95.2092 13.5816 95.3838 13.2186C95.5604 12.8555 95.6487 12.4101 95.6487 11.8824ZM102.437 8.83514V14.9297H101.722L98.4013 10.1445H98.3418V14.9297H97.6038V8.83514H98.318L101.651 13.6322H101.71V8.83514H102.437Z" fill="white"/>
<path d="M66.466 10.7397L66.3709 10.7707L66.3934 10.8397H66.466V10.7397ZM66.2071 10.2011L66.1234 10.2558L66.1242 10.257L66.2071 10.2011ZM65.8291 9.79039L65.7676 9.86921L65.7681 9.86961L65.8291 9.79039ZM65.3351 9.53149L65.3658 9.43632H65.3658L65.3351 9.53149ZM63.0378 10.5463L63.1279 10.5896L63.0378 10.5463ZM63.0408 13.2186L62.9508 13.2623L63.0408 13.2186ZM63.7579 14.0429L63.7053 14.1279L63.7579 14.0429ZM65.6982 14.0994L65.747 14.1867L65.7473 14.1866L65.6982 14.0994ZM66.3231 13.4626L66.2354 13.4146L66.2353 13.4148L66.3231 13.4626ZM66.5493 12.4895L66.5699 12.3916L66.4493 12.3662V12.4895H66.5493ZM66.7755 12.5371V12.6371H67.7359L66.7961 12.4392L66.7755 12.5371ZM64.9423 12.5371H64.8423V12.6371H64.9423V12.5371ZM64.9423 11.8824V11.7824H64.8423V11.8824H64.9423ZM67.2635 11.8824H67.3635V11.7824H67.2635V11.8824ZM66.9421 13.8465L66.8555 13.7965L66.8553 13.7968L66.9421 13.8465ZM66.0613 14.7095L66.1089 14.7974L66.1091 14.7973L66.0613 14.7095ZM63.3532 14.6321L63.3003 14.7169L63.3005 14.717L63.3532 14.6321ZM62.401 13.5489L62.3109 13.5924L62.3111 13.5927L62.401 13.5489ZM62.2551 10.582L62.1604 10.5499L62.1603 10.5502L62.2551 10.582ZM62.8086 9.59398L62.8839 9.65987L62.8086 9.59398ZM63.6538 8.96906L63.6131 8.8777L63.6538 8.96906ZM65.6268 8.89763L65.5937 8.99202L65.5946 8.9923L65.6268 8.89763ZM66.3737 9.30533L66.3108 9.38307L66.3116 9.38369L66.3737 9.30533ZM66.9243 9.93323L66.8386 9.98478L66.8388 9.98509L66.9243 9.93323ZM67.2278 10.7397V10.8397H67.3483L67.3261 10.7212L67.2278 10.7397ZM66.561 10.7086C66.493 10.5003 66.4028 10.3122 66.29 10.1451L66.1242 10.257C66.2256 10.4073 66.308 10.5783 66.3709 10.7707L66.561 10.7086ZM66.2908 10.1463C66.1797 9.97659 66.0462 9.83133 65.8902 9.71117L65.7681 9.86961C65.9057 9.97562 66.0242 10.1041 66.1234 10.2558L66.2908 10.1463ZM65.8907 9.71157C65.7361 9.59088 65.5609 9.49924 65.3658 9.43632L65.3044 9.62666C65.4784 9.68278 65.6325 9.76373 65.7676 9.86921L65.8907 9.71157ZM65.3658 9.43632C65.1702 9.3732 64.9573 9.34222 64.7281 9.34222V9.54222C64.9393 9.54222 65.1311 9.57075 65.3044 9.62666L65.3658 9.43632ZM64.7281 9.34222C64.3488 9.34222 64.0018 9.44046 63.6897 9.63737L63.7964 9.80652C64.0755 9.63046 64.3852 9.54222 64.7281 9.54222V9.34222ZM63.6897 9.63737C63.3759 9.83533 63.1291 10.1256 62.9477 10.5029L63.1279 10.5896C63.2956 10.2408 63.519 9.98153 63.7964 9.80652L63.6897 9.63737ZM62.9477 10.5029C62.7649 10.883 62.6759 11.3442 62.6759 11.8824H62.8759C62.8759 11.3652 62.9615 10.9356 63.1279 10.5896L62.9477 10.5029ZM62.6759 11.8824C62.6759 12.4208 62.7659 12.8821 62.9508 13.2623L63.1307 13.1748C62.9625 12.8289 62.8759 12.3995 62.8759 11.8824H62.6759ZM62.9508 13.2623C63.1345 13.64 63.3855 13.9302 63.7053 14.1279L63.8105 13.9578C63.5272 13.7826 63.3002 13.5233 63.1307 13.1748L62.9508 13.2623ZM63.7053 14.1279C64.0237 14.3248 64.3814 14.4226 64.7757 14.4226V14.2226C64.4161 14.2226 64.0953 14.1339 63.8105 13.9578L63.7053 14.1279ZM64.7757 14.4226C65.1394 14.4226 65.4642 14.345 65.747 14.1867L65.6494 14.0122C65.4005 14.1514 65.1103 14.2226 64.7757 14.2226V14.4226ZM65.7473 14.1866C66.0317 14.0264 66.2534 13.8004 66.411 13.5103L66.2353 13.4148C66.0953 13.6723 65.9004 13.8709 65.6491 14.0123L65.7473 14.1866ZM66.4109 13.5106C66.5711 13.2176 66.6493 12.8761 66.6493 12.4895H66.4493C66.4493 12.8488 66.3767 13.1561 66.2354 13.4146L66.4109 13.5106ZM66.5287 12.5873L66.7549 12.635L66.7961 12.4392L66.5699 12.3916L66.5287 12.5873ZM66.7755 12.4371H64.9423V12.6371H66.7755V12.4371ZM65.0423 12.5371V11.8824H64.8423V12.5371H65.0423ZM64.9423 11.9824H67.2635V11.7824H64.9423V11.9824ZM67.1635 11.8824V12.5371H67.3635V11.8824H67.1635ZM67.1635 12.5371C67.1635 13.0245 67.0596 13.4431 66.8555 13.7965L67.0287 13.8965C67.2532 13.5079 67.3635 13.0535 67.3635 12.5371H67.1635ZM66.8553 13.7968C66.6522 14.1517 66.3721 14.4262 66.0134 14.6217L66.1091 14.7973C66.5003 14.5841 66.8074 14.2832 67.0289 13.8961L66.8553 13.7968ZM66.0136 14.6216C65.6572 14.8149 65.2455 14.913 64.7757 14.913V15.113C65.274 15.113 65.7194 15.0087 66.1089 14.7974L66.0136 14.6216ZM64.7757 14.913C64.2524 14.913 63.797 14.7901 63.406 14.5472L63.3005 14.717C63.7269 14.982 64.2197 15.113 64.7757 15.113V14.913ZM63.4062 14.5473C63.0168 14.3041 62.7115 13.9579 62.4909 13.5051L62.3111 13.5927C62.5467 14.0763 62.8763 14.4522 63.3003 14.7169L63.4062 14.5473ZM62.491 13.5054C62.2728 13.0536 62.1617 12.5136 62.1617 11.8824H61.9617C61.9617 12.5368 62.0768 13.1078 62.3109 13.5924L62.491 13.5054ZM62.1617 11.8824C62.1617 11.4092 62.225 10.9867 62.35 10.6137L62.1603 10.5502C62.0274 10.947 61.9617 11.3915 61.9617 11.8824H62.1617ZM62.3499 10.614C62.4771 10.238 62.6555 9.92057 62.8839 9.65987L62.7334 9.5281C62.4856 9.81098 62.295 10.1522 62.1604 10.5499L62.3499 10.614ZM62.8839 9.65987C63.1125 9.39881 63.3825 9.19926 63.6945 9.06041L63.6131 8.8777C63.2743 9.0285 62.9809 9.24557 62.7334 9.5281L62.8839 9.65987ZM63.6945 9.06041C64.0058 8.92182 64.3499 8.85182 64.7281 8.85182V8.65182C64.3246 8.65182 63.9525 8.72664 63.6131 8.8777L63.6945 9.06041ZM64.7281 8.85182C65.0393 8.85182 65.3276 8.89885 65.5937 8.99202L65.6598 8.80325C65.3705 8.70199 65.0597 8.65182 64.7281 8.65182V8.85182ZM65.5946 8.9923C65.8637 9.08394 66.1022 9.21429 66.3108 9.38307L66.4366 9.22759C66.2088 9.04323 65.9493 8.90179 65.659 8.80297L65.5946 8.9923ZM66.3116 9.38369C66.5223 9.55072 66.6979 9.7509 66.8386 9.98478L67.0099 9.88168C66.857 9.62752 66.6656 9.4091 66.4358 9.22696L66.3116 9.38369ZM66.8388 9.98509C66.9789 10.2162 67.076 10.4736 67.1295 10.7582L67.3261 10.7212C67.2684 10.4146 67.1632 10.1343 67.0098 9.88137L66.8388 9.98509ZM67.2278 10.6397H66.466V10.8397H67.2278V10.6397ZM68.5275 14.9297H68.4275V15.0297H68.5275V14.9297ZM68.5275 8.83514V8.73514H68.4275V8.83514H68.5275ZM72.2056 8.83514H72.3056V8.73514H72.2056V8.83514ZM72.2056 9.48983V9.58983H72.3056V9.48983H72.2056ZM69.2655 9.48983V9.38983H69.1655V9.48983H69.2655ZM69.2655 11.5491H69.1655V11.6491H69.2655V11.5491ZM72.0152 11.5491H72.1152V11.4491H72.0152V11.5491ZM72.0152 12.2038V12.3038H72.1152V12.2038H72.0152ZM69.2655 12.2038V12.1038H69.1655V12.2038H69.2655ZM69.2655 14.275H69.1655V14.375H69.2655V14.275ZM72.2533 14.275H72.3533V14.175H72.2533V14.275ZM72.2533 14.9297V15.0297H72.3533V14.9297H72.2533ZM68.6275 14.9297V8.83514H68.4275V14.9297H68.6275ZM68.5275 8.93514H72.2056V8.73514H68.5275V8.93514ZM72.1056 8.83514V9.48983H72.3056V8.83514H72.1056ZM72.2056 9.38983H69.2655V9.58983H72.2056V9.38983ZM69.1655 9.48983V11.5491H69.3655V9.48983H69.1655ZM69.2655 11.6491H72.0152V11.4491H69.2655V11.6491ZM71.9152 11.5491V12.2038H72.1152V11.5491H71.9152ZM72.0152 12.1038H69.2655V12.3038H72.0152V12.1038ZM69.1655 12.2038V14.275H69.3655V12.2038H69.1655ZM69.2655 14.375H72.2533V14.175H69.2655V14.375ZM72.1533 14.275V14.9297H72.3533V14.275H72.1533ZM72.2533 14.8297H68.5275V15.0297H72.2533V14.8297ZM73.2026 9.48983H73.1026V9.58983H73.2026V9.48983ZM73.2026 8.83514V8.73514H73.1026V8.83514H73.2026ZM77.7735 8.83514H77.8735V8.73514H77.7735V8.83514ZM77.7735 9.48983V9.58983H77.8735V9.48983H77.7735ZM75.857 9.48983V9.38983H75.757V9.48983H75.857ZM75.857 14.9297V15.0297H75.957V14.9297H75.857ZM75.119 14.9297H75.019V15.0297H75.119V14.9297ZM75.119 9.48983H75.219V9.38983H75.119V9.48983ZM73.3026 9.48983V8.83514H73.1026V9.48983H73.3026ZM73.2026 8.93514H77.7735V8.73514H73.2026V8.93514ZM77.6735 8.83514V9.48983H77.8735V8.83514H77.6735ZM77.7735 9.38983H75.857V9.58983H77.7735V9.38983ZM75.757 9.48983V14.9297H75.957V9.48983H75.757ZM75.857 14.8297H75.119V15.0297H75.857V14.8297ZM75.219 14.9297V9.48983H75.019V14.9297H75.219ZM75.119 9.38983H73.2026V9.58983H75.119V9.38983ZM82.0074 8.83514H82.1074V8.73514H82.0074V8.83514ZM82.0074 14.9297V15.0297H82.1074V14.9297H82.0074ZM81.2694 14.9297H81.1693V15.0297H81.2694V14.9297ZM81.2694 8.83514V8.73514H81.1693V8.83514H81.2694ZM81.9074 8.83514V14.9297H82.1074V8.83514H81.9074ZM82.0074 14.8297H81.2694V15.0297H82.0074V14.8297ZM81.3693 14.9297V8.83514H81.1693V14.9297H81.3693ZM81.2694 8.93514H82.0074V8.73514H81.2694V8.93514ZM83.1538 9.48983H83.0538V9.58983H83.1538V9.48983ZM83.1538 8.83514V8.73514H83.0538V8.83514H83.1538ZM87.7247 8.83514H87.8247V8.73514H87.7247V8.83514ZM87.7247 9.48983V9.58983H87.8247V9.48983H87.7247ZM85.8083 9.48983V9.38983H85.7083V9.48983H85.8083ZM85.8083 14.9297V15.0297H85.9083V14.9297H85.8083ZM85.0703 14.9297H84.9703V15.0297H85.0703V14.9297ZM85.0703 9.48983H85.1703V9.38983H85.0703V9.48983ZM83.2538 9.48983V8.83514H83.0538V9.48983H83.2538ZM83.1538 8.93514H87.7247V8.73514H83.1538V8.93514ZM87.6247 8.83514V9.48983H87.8247V8.83514H87.6247ZM87.7247 9.38983H85.8083V9.58983H87.7247V9.38983ZM85.7083 9.48983V14.9297H85.9083V9.48983H85.7083ZM85.8083 14.8297H85.0703V15.0297H85.8083V14.8297ZM85.1703 14.9297V9.48983H84.9703V14.9297H85.1703ZM85.0703 9.38983H83.1538V9.58983H85.0703V9.38983ZM96.0147 13.5489L95.9251 13.5045L96.0147 13.5489ZM95.0594 14.6321L95.1126 14.7168L95.0594 14.6321ZM92.286 14.6321L92.2328 14.7168L92.286 14.6321ZM91.3307 13.5489L91.4203 13.5045L91.3307 13.5489ZM91.3307 10.2159L91.2411 10.1715L91.3307 10.2159ZM95.0594 9.13273L95.1126 9.04802L95.0594 9.13273ZM96.0147 10.2159L95.9251 10.2604L96.0147 10.2159ZM95.3838 10.5463L95.2937 10.5896L95.2939 10.59L95.3838 10.5463ZM94.6726 9.72195L94.6195 9.80668L94.6197 9.80684L94.6726 9.72195ZM92.6698 9.72195L92.617 9.63705L92.6167 9.63721L92.6698 9.72195ZM91.9586 10.5463L91.8687 10.5025L91.8685 10.5029L91.9586 10.5463ZM91.9586 13.2186L91.8685 13.2619L91.8687 13.2623L91.9586 13.2186ZM92.6698 14.0429L92.6167 14.1276L92.617 14.1278L92.6698 14.0429ZM94.6726 14.0429L94.6197 13.958L94.6195 13.9581L94.6726 14.0429ZM95.3838 13.2186L95.2939 13.1748L95.2937 13.1752L95.3838 13.2186ZM96.2629 11.8824C96.2629 12.5133 96.149 13.0529 95.9251 13.5045L96.1043 13.5933C96.3446 13.1085 96.4629 12.5371 96.4629 11.8824H96.2629ZM95.9251 13.5045C95.7004 13.9577 95.3939 14.3042 95.0063 14.5474L95.1126 14.7168C95.5344 14.4522 95.8648 14.0764 96.1043 13.5933L95.9251 13.5045ZM95.0063 14.5474C94.6189 14.7905 94.1754 14.913 93.6727 14.913V15.113C94.2096 15.113 94.6906 14.9816 95.1126 14.7168L95.0063 14.5474ZM93.6727 14.913C93.17 14.913 92.7265 14.7905 92.3391 14.5474L92.2328 14.7168C92.6548 14.9816 93.1358 15.113 93.6727 15.113V14.913ZM92.3391 14.5474C91.9515 14.3042 91.645 13.9577 91.4203 13.5045L91.2411 13.5933C91.4806 14.0764 91.811 14.4522 92.2328 14.7168L92.3391 14.5474ZM91.4203 13.5045C91.1964 13.0529 91.0825 12.5133 91.0825 11.8824H90.8825C90.8825 12.5371 91.0008 13.1085 91.2411 13.5933L91.4203 13.5045ZM91.0825 11.8824C91.0825 11.2516 91.1964 10.7119 91.4203 10.2604L91.2411 10.1715C91.0008 10.6563 90.8825 11.2277 90.8825 11.8824H91.0825ZM91.4203 10.2604C91.645 9.80709 91.9515 9.46065 92.3391 9.21743L92.2328 9.04802C91.811 9.31268 91.4806 9.68839 91.2411 10.1715L91.4203 10.2604ZM92.3391 9.21743C92.7265 8.97436 93.17 8.85182 93.6727 8.85182V8.65182C93.1358 8.65182 92.6548 8.78321 92.2328 9.04802L92.3391 9.21743ZM93.6727 8.85182C94.1754 8.85182 94.6189 8.97436 95.0063 9.21743L95.1126 9.04802C94.6906 8.78321 94.2096 8.65182 93.6727 8.65182V8.85182ZM95.0063 9.21743C95.3939 9.46065 95.7004 9.80709 95.9251 10.2604L96.1043 10.1715C95.8648 9.68839 95.5344 9.31268 95.1126 9.04802L95.0063 9.21743ZM95.9251 10.2604C96.149 10.7119 96.2629 11.2516 96.2629 11.8824H96.4629C96.4629 11.2277 96.3446 10.6563 96.1043 10.1715L95.9251 10.2604ZM95.7487 11.8824C95.7487 11.344 95.6587 10.8827 95.4737 10.5025L95.2939 10.59C95.4621 10.9359 95.5487 11.3654 95.5487 11.8824H95.7487ZM95.4739 10.5029C95.2923 10.1252 95.0433 9.83494 94.7254 9.63705L94.6197 9.80684C94.901 9.98193 95.1261 10.2412 95.2937 10.5896L95.4739 10.5029ZM94.7257 9.63721C94.4114 9.44023 94.0595 9.34222 93.6727 9.34222V9.54222C94.0239 9.54222 94.3386 9.63069 94.6195 9.80668L94.7257 9.63721ZM93.6727 9.34222C93.2859 9.34222 92.9332 9.44023 92.617 9.63705L92.7227 9.80684C93.0057 9.63069 93.3215 9.54222 93.6727 9.54222V9.34222ZM92.6167 9.63721C92.301 9.83506 92.0522 10.1252 91.8687 10.5025L92.0485 10.59C92.2182 10.2412 92.4435 9.9818 92.7229 9.80668L92.6167 9.63721ZM91.8685 10.5029C91.6857 10.883 91.5967 11.3442 91.5967 11.8824H91.7967C91.7967 11.3652 91.8823 10.9356 92.0487 10.5896L91.8685 10.5029ZM91.5967 11.8824C91.5967 12.4207 91.6857 12.8818 91.8685 13.2619L92.0487 13.1752C91.8823 12.8292 91.7967 12.3996 91.7967 11.8824H91.5967ZM91.8687 13.2623C92.0522 13.6396 92.301 13.9298 92.6167 14.1276L92.7229 13.9581C92.4435 13.783 92.2182 13.5236 92.0485 13.1748L91.8687 13.2623ZM92.617 14.1278C92.9332 14.3246 93.2859 14.4226 93.6727 14.4226V14.2226C93.3215 14.2226 93.0057 14.1341 92.7227 13.958L92.617 14.1278ZM93.6727 14.4226C94.0595 14.4226 94.4114 14.3246 94.7257 14.1276L94.6195 13.9581C94.3386 14.1341 94.0239 14.2226 93.6727 14.2226V14.4226ZM94.7254 14.1278C95.0433 13.9299 95.2923 13.6396 95.4739 13.2619L95.2937 13.1752C95.1261 13.5237 94.901 13.7829 94.6197 13.958L94.7254 14.1278ZM95.4737 13.2623C95.6587 12.8821 95.7487 12.4208 95.7487 11.8824H95.5487C95.5487 12.3995 95.4621 12.8289 95.2939 13.1748L95.4737 13.2623ZM102.437 8.83514H102.537V8.73514H102.437V8.83514ZM102.437 14.9297V15.0297H102.537V14.9297H102.437ZM101.722 14.9297L101.64 14.9867L101.67 15.0297H101.722V14.9297ZM98.4013 10.1445L98.4835 10.0875L98.4537 10.0445H98.4013V10.1445ZM98.3418 10.1445V10.0445H98.2418V10.1445H98.3418ZM98.3418 14.9297V15.0297H98.4418V14.9297H98.3418ZM97.6038 14.9297H97.5038V15.0297H97.6038V14.9297ZM97.6038 8.83514V8.73514H97.5038V8.83514H97.6038ZM98.318 8.83514L98.4001 8.77808L98.3703 8.73514H98.318V8.83514ZM101.651 13.6322L101.569 13.6893L101.599 13.7322H101.651V13.6322ZM101.71 13.6322V13.7322H101.81V13.6322H101.71ZM101.71 8.83514V8.73514H101.61V8.83514H101.71ZM102.337 8.83514V14.9297H102.537V8.83514H102.337ZM102.437 14.8297H101.722V15.0297H102.437V14.8297ZM101.805 14.8727L98.4835 10.0875L98.3192 10.2015L101.64 14.9867L101.805 14.8727ZM98.4013 10.0445H98.3418V10.2445H98.4013V10.0445ZM98.2418 10.1445V14.9297H98.4418V10.1445H98.2418ZM98.3418 14.8297H97.6038V15.0297H98.3418V14.8297ZM97.7038 14.9297V8.83514H97.5038V14.9297H97.7038ZM97.6038 8.93514H98.318V8.73514H97.6038V8.93514ZM98.2359 8.8922L101.569 13.6893L101.733 13.5752L98.4001 8.77808L98.2359 8.8922ZM101.651 13.7322H101.71V13.5322H101.651V13.7322ZM101.81 13.6322V8.83514H101.61V13.6322H101.81ZM101.71 8.93514H102.437V8.73514H101.71V8.93514Z" fill="white"/>
<path d="M102.203 32.6272C98.6751 32.6272 95.7994 35.3095 95.7994 39.0069C95.7994 42.6801 98.6751 45.3866 102.203 45.3866C105.732 45.3866 108.607 42.6801 108.607 39.0069C108.607 35.3095 105.732 32.6272 102.203 32.6272ZM102.203 42.8734C100.27 42.8734 98.6026 41.2785 98.6026 39.0069C98.6026 36.7111 100.27 35.1404 102.203 35.1404C104.137 35.1404 105.804 36.7111 105.804 39.0069C105.804 41.2785 104.137 42.8734 102.203 42.8734ZM88.2334 32.6272C84.7051 32.6272 81.8294 35.3095 81.8294 39.0069C81.8294 42.6801 84.7051 45.3866 88.2334 45.3866C91.7615 45.3866 94.6371 42.6801 94.6371 39.0069C94.6371 35.3095 91.7615 32.6272 88.2334 32.6272ZM88.2334 42.8734C86.3 42.8734 84.6327 41.2785 84.6327 39.0069C84.6327 36.7111 86.3 35.1404 88.2334 35.1404C90.1666 35.1404 91.834 36.7111 91.834 39.0069C91.834 41.2785 90.1666 42.8734 88.2334 42.8734ZM71.6152 34.5846V37.2911H78.0916C77.8982 38.8136 77.3909 39.9252 76.6175 40.6985C75.675 41.6409 74.2009 42.6801 71.6152 42.6801C67.6279 42.6801 64.5105 39.466 64.5105 35.4787C64.5105 31.4913 67.6279 28.2774 71.6152 28.2774C73.766 28.2774 75.3367 29.1231 76.4967 30.2106L78.4058 28.3015C76.7867 26.7549 74.636 25.5708 71.6152 25.5708C66.1538 25.5708 61.5623 30.0173 61.5623 35.4787C61.5623 40.9401 66.1538 45.3866 71.6152 45.3866C74.5633 45.3866 76.7867 44.42 78.5265 42.6076C80.3148 40.8193 80.8707 38.3061 80.8707 36.2762C80.8707 35.6479 80.8224 35.0679 80.7256 34.5846H71.6153L71.6152 34.5846ZM139.577 36.687C139.046 35.2612 137.427 32.6272 134.116 32.6272C130.829 32.6272 128.099 35.2129 128.099 39.0069C128.099 42.5834 130.805 45.3866 134.43 45.3866C137.354 45.3866 139.046 43.5983 139.747 42.5592L137.572 41.1093C136.847 42.1726 135.856 42.8734 134.43 42.8734C133.004 42.8734 131.989 42.2209 131.337 40.9401L139.867 37.4119L139.577 36.687V36.687ZM130.878 38.8136C130.805 36.3487 132.787 35.0921 134.213 35.0921C135.324 35.0921 136.267 35.6479 136.581 36.4454L130.878 38.8136H130.878ZM123.942 45H126.745V26.2475H123.942V45ZM119.351 34.0529H119.254C118.626 33.3038 117.418 32.6272 115.895 32.6272C112.705 32.6272 109.781 35.4304 109.781 39.031C109.781 42.6076 112.705 45.3866 115.895 45.3866C117.418 45.3866 118.626 44.71 119.254 43.9367H119.351V44.855C119.351 47.2957 118.046 48.6006 115.943 48.6006C114.228 48.6006 113.164 47.3682 112.729 46.3291L110.289 47.344C110.989 49.0356 112.85 51.1139 115.943 51.1139C119.23 51.1139 122.009 49.1806 122.009 44.4684V33.0138H119.351V34.0529ZM116.137 42.8734C114.204 42.8734 112.584 41.2543 112.584 39.031C112.584 36.7837 114.204 35.1404 116.137 35.1404C118.046 35.1404 119.544 36.7837 119.544 39.031C119.544 41.2543 118.046 42.8734 116.137 42.8734ZM152.708 26.2479H146.001V44.9999H148.8V37.8954H152.708C155.811 37.8954 158.86 35.6495 158.86 32.0716C158.86 28.4938 155.811 26.2479 152.708 26.2479ZM152.781 35.2856H148.8V28.8577H152.781C154.873 28.8577 156.062 30.5904 156.062 32.0716C156.062 33.5249 154.873 35.2856 152.781 35.2856ZM170.078 32.5927C168.051 32.5927 165.953 33.4853 165.084 35.4635L167.569 36.5009C168.1 35.4635 169.089 35.1258 170.126 35.1258C171.574 35.1258 173.045 35.9943 173.069 37.5382V37.7313C172.563 37.4418 171.477 37.0075 170.15 37.0075C167.473 37.0075 164.746 38.4791 164.746 41.2293C164.746 43.7383 166.942 45.3546 169.402 45.3546C171.284 45.3546 172.322 44.5103 172.973 43.5212H173.069V44.9687H175.771V37.7795C175.771 34.4503 173.287 32.5927 170.078 32.5927V32.5927ZM169.74 42.8698C168.823 42.8698 167.545 42.4114 167.545 41.2776C167.545 39.8301 169.137 39.2752 170.512 39.2752C171.743 39.2752 172.322 39.5406 173.069 39.9024C172.852 41.6394 171.357 42.8698 169.74 42.8698ZM185.614 33.0028L182.406 41.1328H182.309L178.98 33.0028H175.964L180.958 44.3655L178.111 50.6862H181.031L188.726 33.0028H185.614H185.614ZM160.404 44.9999H163.202V26.2478H160.404V44.9999Z" fill="white"/>
<path d="M31.0757 29.1362L15.106 46.0861C15.1069 46.0895 15.1075 46.0931 15.1084 46.0965C15.5984 47.9367 17.279 49.2921 19.2745 49.2921C20.0716 49.2921 20.8206 49.0764 21.4629 48.6982L21.5136 48.6677L39.4894 38.2958L31.0757 29.1362H31.0757Z" fill="#EA4335"/>
<path d="M47.232 26.2504L47.2168 26.2402L39.4563 21.7407L30.7131 29.5215L39.4871 38.2938L47.2066 33.8397C48.5597 33.1087 49.4787 31.6822 49.4787 30.0374C49.4787 28.4028 48.5724 26.9839 47.232 26.2504Z" fill="#FBBC04"/>
<path d="M15.105 13.916C15.0092 14.2701 14.9587 14.6418 14.9587 15.0261V44.9773C14.9587 45.3619 15.0089 45.734 15.106 46.0863L31.625 29.5704L15.105 13.916Z" fill="#4285F4"/>
<path d="M31.1936 30.0015L39.4587 21.738L21.5035 11.3277C20.8511 10.9368 20.0895 10.7109 19.2745 10.7109C17.2791 10.7109 15.596 12.0689 15.106 13.9117C15.1056 13.9131 15.1054 13.9145 15.105 13.9159L31.1936 30.0016V30.0015Z" fill="#34A853"/>
</svg>
